#!OML:ASF Y:\EmotionMaleHayes\Project 1\Capture day 1\Session 1\Male1.ASF
:FULLY-SPECIFIED
:DEGREES
1323
root -28.0265 17.1249 2.18708 -663.62 86.1897 55.0633
lowerback 6.75038 2.10247 -5.0831
upperback 1.47345 2.46341 -0.613584
thorax -2.44425 1.2745 1.99687
lowerneck -23.1869 0.594293 3.46991
upperneck 19.6484 -0.581326 1.02061
head 10.0882 0.152651 -0.289478
rclavicle -1.0906e-015 4.05024e-015
rhumerus -36.3136 2.31704 -86.1293
rradius 38.6979
rwrist -6.04646
rhand -15.1495 -30.2092
rfingers 7.12502
rthumb 11.0206 -59.8999
lclavicle -1.0906e-015 4.05024e-015
lhumerus -29.6273 2.67957 83.2615
lradius 16.9456
lwrist -20.3876
lhand -23.3126 -25.4786
lfingers 7.12502
lthumb 3.14117 4.47802
rfemur 4.9432 -4.65916 11.7409
rtibia 5.55532
rfoot -16.0033 -1.74931
rtoes 20.445
lfemur 7.68425 4.45621 -19.1792
ltibia -1.54917
lfoot -12.0967 18.9377
ltoes -2.86079
1324
root -28.0033 17.1298 2.19199 -650.889 86.5483 67.9655
lowerback 6.77325 1.81085 -5.22091
upperback 1.54187 2.07006 -0.555764
thorax -2.36389 1.07754 2.17138
lowerneck -23.0824 0.606289 3.43413
upperneck 19.5377 -0.544926 1.01627
head 10.03 0.163259 -0.279898
rclavicle 6.09555e-015 -1.799e-014
rhumerus -36.311 2.2123 -85.9814
rradius 38.487
rwrist -5.88293
rhand -15.0058 -29.9037
rfingers 7.12502
rthumb 11.1592 -59.5869
lclavicle 6.09555e-015 -1.799e-014
lhumerus -29.8686 2.42312 83.1317
lradius 17.0626
lwrist -19.8659
lhand -23.2892 -25.5945
lfingers 7.12502
lthumb 3.16378 4.36178
rfemur 5.85814 -4.83099 11.6399
rtibia 4.72964
rfoot -16.0001 -2.47484
rtoes 20.3561
lfemur 7.80186 4.39825 -19.12
ltibia -1.46549
lfoot -11.6726 18.2958
ltoes -4.20891
1325
root -27.9988 17.1358 2.18891 -652.391 86.3997 66.5433
lowerback 6.83187 1.85078 -5.30885
upperback 1.5591 2.11376 -0.607754
thorax -2.3831 1.10037 2.16122
lowerneck -22.9344 0.648392 3.46072
upperneck 19.3914 -0.498047 1.06587
head 9.95212 0.189735 -0.259881
rclavicle -2.35552e-014 1.81639e-014
rhumerus -36.3091 2.10746 -85.9399
rradius 38.3059
rwrist -5.76296
rhand -15.005 -29.6603
rfingers 7.12502
rthumb 11.1599 -59.3435
lclavicle -2.35552e-014 1.81639e-014
lhumerus -30.2137 1.63463 83.1646
lradius 17.392
lwrist -19.2835
lhand -24.1419 -25.3734
lfingers 7.12502
lthumb 2.34029 4.59355
rfemur 6.02756 -4.84726 11.4591
rtibia 4.54977
rfoot -15.815 -2.38866
rtoes 20.3385
lfemur 7.97338 4.2895 -19.324
ltibia -1.61994
lfoot -11.7132 18.567
ltoes -4.34411
1326
root -27.9957 17.1384 2.18685 -650.88 86.2894 68.0607
lowerback 6.99385 1.85856 -5.40714
upperback 1.44477 2.10002 -0.66106
thorax -2.59229 1.10042 2.15515
lowerneck -22.804 0.621983 3.43448
upperneck 19.4061 -0.521036 1.07741
head 9.93385 0.178879 -0.255083
rclavicle -1.15035e-014 1.9456e-014
rhumerus -36.5025 1.98666 -85.8736
rradius 38.1452
rwrist -5.64148
rhand -15.0441 -29.5258
rfingers 7.12502
rthumb 11.1222 -59.2111
lclavicle -1.15035e-014 1.9456e-014
lhumerus -30.5508 1.79503 82.725
lradius 17.7089
lwrist -18.3878
lhand -22.0903 -26.21
lfingers 7.12502
lthumb 4.32161 3.72589
rfemur 6.14271 -4.94808 11.2537
rtibia 4.39647
rfoot -15.6856 -2.38671
rtoes 20.275
lfemur 7.97291 4.08107 -19.5745
ltibia -1.60624
lfoot -11.8589 18.6998
ltoes -3.36338
1327
root -27.993 17.1377 2.18603 -649.656 86.2517 69.2736
lowerback 7.05748 1.87575 -5.44381
upperback 1.38662 2.11275 -0.675635
thorax -2.68987 1.10997 2.1562
lowerneck -22.7738 0.575931 3.39816
upperneck 19.4651 -0.557272 1.01839
head 9.94857 0.153247 -0.275458
rclavicle 2.42657e-015 2.21396e-014
rhumerus -36.646 1.87428 -85.7808
rradius 38.092
rwrist -5.55429
rhand -15.0192 -29.7741
rfingers 7.12502
rthumb 11.1462 -59.4581
lclavicle 2.42657e-015 2.21396e-014
lhumerus -30.8989 0.8369 82.9656
lradius 18.0146
lwrist -17.9799
lhand -22.4169 -25.7297
lfingers 7.12502
lthumb 4.0062 4.21236
rfemur 6.23361 -5.0618 11.1414
rtibia 4.2619
rfoot -15.6378 -2.4161
rtoes 19.896
lfemur 7.92513 3.95996 -19.6989
ltibia -1.49614
lfoot -12.0221 18.7152
ltoes -2.15657
1328
root -27.9853 17.136 2.18508 -649.007 86.3468 69.8823
lowerback 6.96067 1.85615 -5.36396
upperback 1.38485 2.09885 -0.649645
thorax -2.63486 1.10095 2.14279
lowerneck -22.796 0.568859 3.39737
upperneck 19.5267 -0.55589 0.965423
head 9.97421 0.148541 -0.293827
rclavicle 6.69501e-015 -5.11871e-015
rhumerus -36.7142 1.85087 -85.7446
rradius 38.1086
rwrist -5.57873
rhand -15.0322 -30.364
rfingers 7.12502
rthumb 11.1337 -60.0486
lclavicle 6.69501e-015 -5.11871e-015
lhumerus -31.1006 0.0894647 83.1003
lradius 18.1913
lwrist -17.4709
lhand -24.2273 -25.5042
lfingers 7.12502
lthumb 2.2578 4.46362
rfemur 6.33628 -5.17504 11.2037
rtibia 4.08476
rfoot -15.6031 -2.39209
rtoes 19.6154
lfemur 7.87782 3.86252 -19.6353
ltibia -1.41167
lfoot -12.2022 18.6491
ltoes -1.65461
1329
root -27.9695 17.1336 2.18276 -647.788 86.3352 71.1165
lowerback 6.79374 1.82786 -5.38464
upperback 1.43767 2.07303 -0.668176
thorax -2.48495 1.08424 2.14375
lowerneck -22.8266 0.562757 3.41657
upperneck 19.5392 -0.567613 0.944324
head 9.98388 0.142288 -0.306165
rclavicle 2.03972e-014 -1.2629e-014
rhumerus -36.7136 1.83737 -85.7328
rradius 38.0466
rwrist -5.59743
rhand -14.9776 -30.8229
rfingers 7.12502
rthumb 11.1864 -60.5046
lclavicle 2.03972e-014 -1.2629e-014
lhumerus -31.3183 -0.816269 83.2596
lradius 18.5103
lwrist -16.5034
lhand -23.0036 -25.6507
lfingers 7.12502
lthumb 3.43963 4.30131
rfemur 6.54481 -5.40037 11.0691
rtibia 3.89647
rfoot -15.5479 -2.20575
rtoes 19.6925
lfemur 7.98037 3.79788 -19.7171
ltibia -1.46819
lfoot -12.3091 18.573
ltoes -1.50716
